<svg width="168" height="60" viewBox="0 0 168 60" fill="none" xmlns="http://www.w3.org/2000/svg">
<path d="M20.6588 1H20.116L19.8202 1.45514L2.16147 28.6316L1.81763 29.1608L2.1473 29.6989L19.8061 58.5224L20.0987 59H20.6588H146.573H147.121L147.416 58.5386L165.843 29.7151L166.197 29.1603L165.828 28.6153L147.401 1.4388L147.104 1H146.573H20.6588Z" fill="#2C2C2C" fill-opacity="0.3"/>
<path d="M20.6588 1H20.116L19.8202 1.45514L2.16147 28.6316L1.81763 29.1608L2.1473 29.6989L19.8061 58.5224L20.0987 59H20.6588H146.573H147.121L147.416 58.5386L165.843 29.7151L166.197 29.1603L165.828 28.6153L147.401 1.4388L147.104 1H146.573H20.6588Z" fill="#F8FAFF" fill-opacity="0.05"/>
<path d="M20.6588 1H20.116L19.8202 1.45514L2.16147 28.6316L1.81763 29.1608L2.1473 29.6989L19.8061 58.5224L20.0987 59H20.6588H146.573H147.121L147.416 58.5386L165.843 29.7151L166.197 29.1603L165.828 28.6153L147.401 1.4388L147.104 1H146.573H20.6588Z" stroke="#F8FAFF" stroke-width="2"/>
</svg>
