<svg width="88" height="52" viewBox="0 0 88 52" fill="none" xmlns="http://www.w3.org/2000/svg">
<path fill-rule="evenodd" clip-rule="evenodd" d="M63.1896 20.7711C65.3188 20.9156 67.2774 21.0889 69.1226 21.2911C68.7819 19.3556 68.2141 17.4778 67.4761 15.7156C66.5394 13.52 65.3188 11.4689 63.871 9.64889C59.1871 3.75556 52.0335 0 44 0C35.9665 0 28.8129 3.75556 24.129 9.64889C27.0812 9.33111 30.1471 9.1 33.3549 8.92666C36.4206 6.93333 40.0826 5.77778 44 5.77778C47.9174 5.77778 51.5794 6.93333 54.6451 8.92666C57.058 10.4867 59.1302 12.5667 60.6916 15.0222C55.5535 14.6178 49.9045 14.4444 44 14.4444C38.0955 14.4444 32.4465 14.6178 27.3084 15.0222C24.9239 15.1955 22.6529 15.4267 20.5239 15.7156C18.2245 16.0044 16.0955 16.38 14.1084 16.7844C5.42194 18.6044 0 21.58 0 26C0 30.42 5.42194 33.3955 14.1084 35.2155C13.5974 33.4822 13.2284 31.6911 13.0013 29.8422C8.40257 28.9178 5.67741 27.6756 5.67741 26C5.67741 24.3244 8.40257 23.0533 13.0013 22.1578C14.7045 21.8111 16.6916 21.5222 18.8774 21.2911C20.7226 21.0889 22.7096 20.9156 24.8104 20.7711C30.431 20.3956 37.0167 20.2222 44 20.2222C50.9833 20.2222 57.5406 20.3956 63.1896 20.7711ZM73.8915 35.2156C82.578 33.3956 87.9998 30.42 87.9998 26C87.9998 21.58 82.578 18.6044 73.8915 16.7844C74.4025 18.5178 74.7715 20.3089 74.9986 22.1578C79.5974 23.0533 82.3225 24.3244 82.3225 26C82.3225 27.6756 79.5974 28.9467 74.9986 29.8422C73.2953 30.1889 71.3082 30.4778 69.1225 30.7089C67.2772 30.9111 65.2902 31.0844 63.1896 31.2289C57.5688 31.6044 50.9831 31.7778 43.9998 31.7778C37.0166 31.7778 30.4592 31.6044 24.8102 31.2289C22.6811 31.0844 20.7225 30.9111 18.8772 30.7089C19.218 32.6444 19.7856 34.5222 20.5237 36.2844C21.4605 38.48 22.6811 40.5311 24.1288 42.3511C28.8127 48.2445 35.9664 52 43.9998 52C52.0333 52 59.187 48.2445 63.8709 42.3511C60.9186 42.6689 57.8527 42.9 54.645 43.0733C51.5792 45.0667 47.9172 46.2222 43.9998 46.2222C40.0825 46.2222 36.4205 45.0667 33.3547 43.0733C30.9419 41.5133 28.8695 39.4333 27.3082 36.9778C32.4464 37.3822 38.0954 37.5556 43.9998 37.5556C49.9043 37.5556 55.5533 37.3822 60.6915 36.9778C63.076 36.8044 65.347 36.5733 67.476 36.2844C69.7754 35.9956 71.9043 35.62 73.8915 35.2156Z" fill="#F8FAFF"/>
</svg>
