<svg width="48" height="40" viewBox="0 0 48 40" fill="none" xmlns="http://www.w3.org/2000/svg">
<path d="M11.2364 40L0 19.8817L11.4545 0H36.5455L48 19.8817L36.7636 40H11.2364Z" fill="#413715"/>
<path d="M11.4545 0L0 19.8817H0.872727L12 0.710059L11.4545 0Z" fill="url(#paint0_linear_2068_239)"/>
<path d="M0 19.8817L11.2364 40L11.7818 39.2899L0.872727 19.8817H0Z" fill="url(#paint1_linear_2068_239)"/>
<path d="M12 0.710059L0.872727 19.8817L11.7818 39.2899H21.1636V31.9527H15.2727L8.29091 19.8817L15.4909 8.04734H21.1636V0.710059H12Z" fill="url(#paint2_linear_2068_239)"/>
<path d="M12 0.710059H21.1636L21.8182 0H11.4545L12 0.710059Z" fill="url(#paint3_linear_2068_239)"/>
<path d="M21.1636 0.710059V8.04734L21.8182 8.7574V0L21.1636 0.710059Z" fill="url(#paint4_linear_2068_239)"/>
<path d="M21.1636 8.04734H15.4909L15.9273 8.7574H21.8182L21.1636 8.04734Z" fill="url(#paint5_linear_2068_239)"/>
<path d="M15.4909 8.04734L8.29091 19.8817H9.16364L15.9273 8.7574L15.4909 8.04734Z" fill="url(#paint6_linear_2068_239)"/>
<path d="M8.29091 19.8817L15.2727 31.9527L15.7091 31.2426L9.16364 19.8817H8.29091Z" fill="url(#paint7_linear_2068_239)"/>
<path d="M15.2727 31.9527H21.1636L21.8182 31.2426H15.7091L15.2727 31.9527Z" fill="url(#paint8_linear_2068_239)"/>
<path d="M21.1636 31.9527V39.2899L21.8182 40V31.2426L21.1636 31.9527Z" fill="url(#paint9_linear_2068_239)"/>
<path d="M21.1636 39.2899H11.7818L11.2364 40H21.8182L21.1636 39.2899Z" fill="url(#paint10_linear_2068_239)"/>
<path d="M36.5455 0L48 19.8817H47.1273L36 0.710059L36.5455 0Z" fill="url(#paint11_linear_2068_239)"/>
<path d="M48 19.8817L36.7636 40L36.2182 39.2899L47.1273 19.8817H48Z" fill="url(#paint12_linear_2068_239)"/>
<path d="M36 0.710059L47.1273 19.8817L36.2182 39.2899H26.8364V31.9527H32.7273L39.7091 19.8817L32.5091 8.04734H26.8364V0.710059H36Z" fill="url(#paint13_linear_2068_239)"/>
<path d="M36 0.710059H26.8364L26.1818 0H36.5455L36 0.710059Z" fill="url(#paint14_linear_2068_239)"/>
<path d="M26.8364 0.710059V8.04734L26.1818 8.7574V0L26.8364 0.710059Z" fill="url(#paint15_linear_2068_239)"/>
<path d="M26.8364 8.04734H32.5091L32.0727 8.7574H26.1818L26.8364 8.04734Z" fill="url(#paint16_linear_2068_239)"/>
<path d="M32.5091 8.04734L39.7091 19.8817H38.8364L32.0727 8.7574L32.5091 8.04734Z" fill="url(#paint17_linear_2068_239)"/>
<path d="M39.7091 19.8817L32.7273 31.9527L32.2909 31.2426L38.8364 19.8817H39.7091Z" fill="url(#paint18_linear_2068_239)"/>
<path d="M32.7273 31.9527H26.8364L26.1818 31.2426H32.2909L32.7273 31.9527Z" fill="url(#paint19_linear_2068_239)"/>
<path d="M26.8364 31.9527V39.2899L26.1818 40V31.2426L26.8364 31.9527Z" fill="url(#paint20_linear_2068_239)"/>
<path d="M26.8364 39.2899H36.2182L36.7636 40H26.1818L26.8364 39.2899Z" fill="url(#paint21_linear_2068_239)"/>
<path fill-rule="evenodd" clip-rule="evenodd" d="M18.5454 12.5444L14.6182 19.8817L18.5454 27.4557H21.1636V12.5444H18.5454Z" fill="url(#paint22_linear_2068_239)"/>
<path d="M14.6182 19.8817L18.5454 12.5444L18.3273 11.8344L13.9636 19.8817H14.6182Z" fill="url(#paint23_linear_2068_239)"/>
<path d="M18.5454 12.5444H21.1636L21.8182 11.8344H18.3273L18.5454 12.5444Z" fill="url(#paint24_linear_2068_239)"/>
<path d="M18.5454 27.4557L14.6182 19.8817H13.9636L18.3273 28.1657L18.5454 27.4557Z" fill="url(#paint25_linear_2068_239)"/>
<path d="M21.1636 12.5444V27.4557L21.8182 28.1657V11.8344L21.1636 12.5444Z" fill="url(#paint26_linear_2068_239)"/>
<path d="M21.1636 27.4557H18.5454L18.3273 28.1657H21.8182L21.1636 27.4557Z" fill="url(#paint27_linear_2068_239)"/>
<path fill-rule="evenodd" clip-rule="evenodd" d="M29.4546 12.5444L33.3818 19.8817L29.4546 27.4557H26.8364V12.5444H29.4546Z" fill="url(#paint28_linear_2068_239)"/>
<path d="M33.3818 19.8817L29.4546 12.5444L29.6727 11.8344L34.0364 19.8817H33.3818Z" fill="url(#paint29_linear_2068_239)"/>
<path d="M29.4546 12.5444H26.8364L26.1818 11.8344H29.6727L29.4546 12.5444Z" fill="url(#paint30_linear_2068_239)"/>
<path d="M29.4546 27.4557L33.3818 19.8817H34.0364L29.6727 28.1657L29.4546 27.4557Z" fill="url(#paint31_linear_2068_239)"/>
<path d="M26.8364 12.5444V27.4557L26.1818 28.1657V11.8344L26.8364 12.5444Z" fill="url(#paint32_linear_2068_239)"/>
<path d="M26.8364 27.4557H29.4546L29.6727 28.1657H26.1818L26.8364 27.4557Z" fill="url(#paint33_linear_2068_239)"/>
<defs>
<linearGradient id="paint0_linear_2068_239" x1="0" y1="0" x2="32.6671" y2="13.2474" gradientUnits="userSpaceOnUse">
<stop stop-color="#BCAE45"/>
<stop offset="1" stop-color="#E5A22E"/>
</linearGradient>
<linearGradient id="paint1_linear_2068_239" x1="0" y1="0" x2="32.6671" y2="13.2474" gradientUnits="userSpaceOnUse">
<stop stop-color="#8A7F32"/>
<stop offset="1" stop-color="#9E701F"/>
</linearGradient>
<linearGradient id="paint2_linear_2068_239" x1="0.872729" y1="0.710058" x2="23.9971" y2="37.9005" gradientUnits="userSpaceOnUse">
<stop stop-color="#FAE75D"/>
<stop offset="1" stop-color="#E5A22E"/>
</linearGradient>
<linearGradient id="paint3_linear_2068_239" x1="0.872729" y1="0.710058" x2="23.9971" y2="37.9005" gradientUnits="userSpaceOnUse">
<stop stop-color="#DFCE55"/>
<stop offset="1" stop-color="#E5A22E"/>
</linearGradient>
<linearGradient id="paint4_linear_2068_239" x1="0.872729" y1="0.710058" x2="23.9971" y2="37.9005" gradientUnits="userSpaceOnUse">
<stop stop-color="#C7B84C"/>
<stop offset="1" stop-color="#E5A22E"/>
</linearGradient>
<linearGradient id="paint5_linear_2068_239" x1="0.872729" y1="0.710058" x2="23.9971" y2="37.9005" gradientUnits="userSpaceOnUse">
<stop stop-color="#69622B"/>
<stop offset="1" stop-color="#E5A22E"/>
</linearGradient>
<linearGradient id="paint6_linear_2068_239" x1="0.872729" y1="0.710058" x2="23.9971" y2="37.9005" gradientUnits="userSpaceOnUse">
<stop stop-color="#726A2E"/>
<stop offset="1" stop-color="#E5A22E"/>
</linearGradient>
<linearGradient id="paint7_linear_2068_239" x1="0.872729" y1="0.710058" x2="23.9971" y2="37.9005" gradientUnits="userSpaceOnUse">
<stop stop-color="#B7A949"/>
<stop offset="1" stop-color="#C78D29"/>
</linearGradient>
<linearGradient id="paint8_linear_2068_239" x1="0.872729" y1="0.710058" x2="23.9971" y2="37.9005" gradientUnits="userSpaceOnUse">
<stop stop-color="#FAE75D"/>
<stop offset="1" stop-color="#B78226"/>
</linearGradient>
<linearGradient id="paint9_linear_2068_239" x1="0.872729" y1="0.710058" x2="23.9971" y2="37.9005" gradientUnits="userSpaceOnUse">
<stop stop-color="#FAE75D"/>
<stop offset="1" stop-color="#A97824"/>
</linearGradient>
<linearGradient id="paint10_linear_2068_239" x1="0.872729" y1="0.710058" x2="23.9971" y2="37.9005" gradientUnits="userSpaceOnUse">
<stop stop-color="#FAE75D"/>
<stop offset="1" stop-color="#855F1E"/>
</linearGradient>
<linearGradient id="paint11_linear_2068_239" x1="48" y1="0" x2="15.3329" y2="13.2474" gradientUnits="userSpaceOnUse">
<stop stop-color="#BCAE45"/>
<stop offset="1" stop-color="#E5A22E"/>
</linearGradient>
<linearGradient id="paint12_linear_2068_239" x1="48" y1="0" x2="15.3329" y2="13.2474" gradientUnits="userSpaceOnUse">
<stop stop-color="#8A7F32"/>
<stop offset="1" stop-color="#9E701F"/>
</linearGradient>
<linearGradient id="paint13_linear_2068_239" x1="47.1273" y1="0.710058" x2="24.0029" y2="37.9005" gradientUnits="userSpaceOnUse">
<stop stop-color="#FAE75D"/>
<stop offset="1" stop-color="#E5A22E"/>
</linearGradient>
<linearGradient id="paint14_linear_2068_239" x1="47.1273" y1="0.710058" x2="24.0029" y2="37.9005" gradientUnits="userSpaceOnUse">
<stop stop-color="#DFCE55"/>
<stop offset="1" stop-color="#E5A22E"/>
</linearGradient>
<linearGradient id="paint15_linear_2068_239" x1="47.1273" y1="0.710058" x2="24.0029" y2="37.9005" gradientUnits="userSpaceOnUse">
<stop stop-color="#C7B84C"/>
<stop offset="1" stop-color="#E5A22E"/>
</linearGradient>
<linearGradient id="paint16_linear_2068_239" x1="47.1273" y1="0.710058" x2="24.0029" y2="37.9005" gradientUnits="userSpaceOnUse">
<stop stop-color="#69622B"/>
<stop offset="1" stop-color="#E5A22E"/>
</linearGradient>
<linearGradient id="paint17_linear_2068_239" x1="47.1273" y1="0.710058" x2="24.0029" y2="37.9005" gradientUnits="userSpaceOnUse">
<stop stop-color="#726A2E"/>
<stop offset="1" stop-color="#E5A22E"/>
</linearGradient>
<linearGradient id="paint18_linear_2068_239" x1="47.1273" y1="0.710058" x2="24.0029" y2="37.9005" gradientUnits="userSpaceOnUse">
<stop stop-color="#B7A949"/>
<stop offset="1" stop-color="#C78D29"/>
</linearGradient>
<linearGradient id="paint19_linear_2068_239" x1="47.1273" y1="0.710058" x2="24.0029" y2="37.9005" gradientUnits="userSpaceOnUse">
<stop stop-color="#FAE75D"/>
<stop offset="1" stop-color="#B78226"/>
</linearGradient>
<linearGradient id="paint20_linear_2068_239" x1="47.1273" y1="0.710058" x2="24.0029" y2="37.9005" gradientUnits="userSpaceOnUse">
<stop stop-color="#FAE75D"/>
<stop offset="1" stop-color="#A97824"/>
</linearGradient>
<linearGradient id="paint21_linear_2068_239" x1="47.1273" y1="0.710058" x2="24.0029" y2="37.9005" gradientUnits="userSpaceOnUse">
<stop stop-color="#FAE75D"/>
<stop offset="1" stop-color="#855F1E"/>
</linearGradient>
<linearGradient id="paint22_linear_2068_239" x1="14.6182" y1="12.5444" x2="33.1378" y2="25.9884" gradientUnits="userSpaceOnUse">
<stop stop-color="#FAE75D"/>
<stop offset="1" stop-color="#E8AB34"/>
</linearGradient>
<linearGradient id="paint23_linear_2068_239" x1="14.6182" y1="12.5444" x2="33.1378" y2="25.9884" gradientUnits="userSpaceOnUse">
<stop stop-color="#B8AA46"/>
<stop offset="1" stop-color="#E8AB34"/>
</linearGradient>
<linearGradient id="paint24_linear_2068_239" x1="14.6182" y1="12.5444" x2="33.1378" y2="25.9884" gradientUnits="userSpaceOnUse">
<stop stop-color="#CDBD4B"/>
<stop offset="1" stop-color="#E8AB34"/>
</linearGradient>
<linearGradient id="paint25_linear_2068_239" x1="14.6182" y1="12.5444" x2="33.1378" y2="25.9884" gradientUnits="userSpaceOnUse">
<stop stop-color="#72692C"/>
<stop offset="1" stop-color="#E8AB34"/>
</linearGradient>
<linearGradient id="paint26_linear_2068_239" x1="14.6182" y1="12.5444" x2="33.1378" y2="25.9884" gradientUnits="userSpaceOnUse">
<stop stop-color="#534D21"/>
<stop offset="1" stop-color="#E8AB34"/>
</linearGradient>
<linearGradient id="paint27_linear_2068_239" x1="14.6182" y1="12.5444" x2="33.1378" y2="25.9884" gradientUnits="userSpaceOnUse">
<stop/>
<stop offset="1" stop-color="#E8AB34"/>
</linearGradient>
<linearGradient id="paint28_linear_2068_239" x1="33.3818" y1="12.5444" x2="14.8622" y2="25.9884" gradientUnits="userSpaceOnUse">
<stop stop-color="#FAE75D"/>
<stop offset="1" stop-color="#E8AB34"/>
</linearGradient>
<linearGradient id="paint29_linear_2068_239" x1="33.3818" y1="12.5444" x2="14.8622" y2="25.9884" gradientUnits="userSpaceOnUse">
<stop stop-color="#B8AA46"/>
<stop offset="1" stop-color="#E8AB34"/>
</linearGradient>
<linearGradient id="paint30_linear_2068_239" x1="33.3818" y1="12.5444" x2="14.8622" y2="25.9884" gradientUnits="userSpaceOnUse">
<stop stop-color="#CDBD4B"/>
<stop offset="1" stop-color="#E8AB34"/>
</linearGradient>
<linearGradient id="paint31_linear_2068_239" x1="33.3818" y1="12.5444" x2="14.8622" y2="25.9884" gradientUnits="userSpaceOnUse">
<stop stop-color="#72692C"/>
<stop offset="1" stop-color="#E8AB34"/>
</linearGradient>
<linearGradient id="paint32_linear_2068_239" x1="33.3818" y1="12.5444" x2="14.8622" y2="25.9884" gradientUnits="userSpaceOnUse">
<stop stop-color="#534D21"/>
<stop offset="1" stop-color="#E8AB34"/>
</linearGradient>
<linearGradient id="paint33_linear_2068_239" x1="33.3818" y1="12.5444" x2="14.8622" y2="25.9884" gradientUnits="userSpaceOnUse">
<stop/>
<stop offset="1" stop-color="#E8AB34"/>
</linearGradient>
</defs>
</svg>
