<svg width="48" height="42" viewBox="0 0 48 42" fill="none" xmlns="http://www.w3.org/2000/svg">
<g clip-path="url(#clip0_2069_249)">
<path fill-rule="evenodd" clip-rule="evenodd" d="M8.78904 0.206279L0.0369583 18.6978C0.00365414 18.7666 -0.00689974 18.8443 0.00684008 18.9195C0.0205799 18.9948 0.0578926 19.0636 0.113322 19.116L23.7506 41.899C23.8177 41.9638 23.9072 42 24.0002 42C24.0932 42 24.1826 41.9638 24.2498 41.899L47.8871 19.1174C47.9425 19.0651 47.9798 18.9962 47.9935 18.921C48.0073 18.8457 47.9967 18.768 47.9634 18.6993L39.2113 0.207702C39.1831 0.145599 39.1377 0.0929907 39.0805 0.0561634C39.0233 0.019336 38.9568 -0.00015234 38.8889 2.75273e-05H9.11429C9.04607 -0.00082616 8.97907 0.0181927 8.92136 0.0547899C8.86364 0.0913871 8.81769 0.143999 8.78904 0.206279Z" fill="#50AF95"/>
<path fill-rule="evenodd" clip-rule="evenodd" d="M27.0369 20.5967C26.8672 20.6095 25.9904 20.6622 24.0347 20.6622C22.4791 20.6622 21.3747 20.6152 20.9872 20.5967C14.9757 20.3307 10.4887 19.2781 10.4887 18.0179C10.4887 16.7576 14.9757 15.7064 20.9872 15.4362V19.5484C21.3803 19.5769 22.506 19.6437 24.0615 19.6437C25.9282 19.6437 26.8629 19.5655 27.0312 19.5498V15.439C33.03 15.7078 37.5071 16.7604 37.5071 18.0179C37.5071 19.2753 33.0314 20.3279 27.0312 20.5953L27.0369 20.5967ZM27.0369 15.0137V11.3339H35.4086V5.72241H12.6155V11.3339H20.9858V15.0123C14.1824 15.3266 9.06604 16.6822 9.06604 18.3066C9.06604 19.931 14.1824 21.2852 20.9858 21.601V33.3929H27.0355V21.5967C33.8233 21.2823 38.9312 19.9282 38.9312 18.3052C38.9312 16.6822 33.8275 15.3281 27.0355 15.0123L27.0369 15.0137Z" fill="white"/>
</g>
<defs>
<clipPath id="clip0_2069_249">
<rect width="48" height="42" fill="white"/>
</clipPath>
</defs>
</svg>
