<svg width="50" height="50" viewBox="0 0 50 50" fill="none" xmlns="http://www.w3.org/2000/svg">
<g clip-path="url(#clip0_2061_1019)">
<path d="M25 50C38.8071 50 50 38.8071 50 25C50 11.1929 38.8071 0 25 0C11.1929 0 0 11.1929 0 25C0 38.8071 11.1929 50 25 50Z" fill="#0052FF"/>
<path fill-rule="evenodd" clip-rule="evenodd" d="M7.42188 25C7.42188 34.7082 15.2918 42.5781 25 42.5781C34.7082 42.5781 42.5781 34.7082 42.5781 25C42.5781 15.2918 34.7082 7.42188 25 7.42188C15.2918 7.42188 7.42188 15.2918 7.42188 25ZM20.5078 19.3359C19.8606 19.3359 19.3359 19.8606 19.3359 20.5078V29.4922C19.3359 30.1394 19.8606 30.6641 20.5078 30.6641H29.4922C30.1394 30.6641 30.6641 30.1394 30.6641 29.4922V20.5078C30.6641 19.8606 30.1394 19.3359 29.4922 19.3359H20.5078Z" fill="white"/>
</g>
<defs>
<clipPath id="clip0_2061_1019">
<rect width="50" height="50" fill="white"/>
</clipPath>
</defs>
</svg>
