<svg width="50" height="50" viewBox="0 0 50 50" fill="none" xmlns="http://www.w3.org/2000/svg">
<g clip-path="url(#clip0_2061_982)">
<path d="M47.5098 1.95312L28 16.4433L31.6078 7.8943L47.5098 1.95312Z" fill="#E2761B" stroke="#E2761B" stroke-linecap="round" stroke-linejoin="round"/>
<path d="M2.47058 1.95312L21.8235 16.5806L18.3922 7.8943L2.47058 1.95312Z" fill="#E4761B" stroke="#E4761B" stroke-linecap="round" stroke-linejoin="round"/>
<path d="M40.4901 35.5414L35.2941 43.5021L46.4117 46.561L49.6078 35.7178L40.4901 35.5414Z" fill="#E4761B" stroke="#E4761B" stroke-linecap="round" stroke-linejoin="round"/>
<path d="M0.411743 35.7178L3.58821 46.561L14.7059 43.5021L9.50978 35.5414L0.411743 35.7178Z" fill="#E4761B" stroke="#E4761B" stroke-linecap="round" stroke-linejoin="round"/>
<path d="M14.0784 22.0904L10.9803 26.7767L22.0196 27.2669L21.6274 15.4041L14.0784 22.0904Z" fill="#E4761B" stroke="#E4761B" stroke-linecap="round" stroke-linejoin="round"/>
<path d="M35.902 22.0904L28.2549 15.2668L28 27.2668L39.0196 26.7767L35.902 22.0904Z" fill="#E4761B" stroke="#E4761B" stroke-linecap="round" stroke-linejoin="round"/>
<path d="M14.7058 43.5021L21.3333 40.2668L15.6078 35.7963L14.7058 43.5021Z" fill="#E4761B" stroke="#E4761B" stroke-linecap="round" stroke-linejoin="round"/>
<path d="M28.6471 40.2668L35.2942 43.5021L34.3726 35.7963L28.6471 40.2668Z" fill="#E4761B" stroke="#E4761B" stroke-linecap="round" stroke-linejoin="round"/>
<path d="M35.2942 43.5021L28.6471 40.2668L29.1765 44.6002L29.1177 46.4237L35.2942 43.5021Z" fill="#D7C1B3" stroke="#D7C1B3" stroke-linecap="round" stroke-linejoin="round"/>
<path d="M14.7059 43.5021L20.8824 46.4237L20.8432 44.6002L21.3334 40.2668L14.7059 43.5021Z" fill="#D7C1B3" stroke="#D7C1B3" stroke-linecap="round" stroke-linejoin="round"/>
<path d="M20.9803 32.9335L15.4509 31.3061L19.3529 29.5218L20.9803 32.9335Z" fill="#233447" stroke="#233447" stroke-linecap="round" stroke-linejoin="round"/>
<path d="M29 32.9335L30.6275 29.5218L34.549 31.3061L29 32.9335Z" fill="#233447" stroke="#233447" stroke-linecap="round" stroke-linejoin="round"/>
<path d="M14.7058 43.5022L15.647 35.5414L9.50977 35.7179L14.7058 43.5022Z" fill="#CD6116" stroke="#CD6116" stroke-linecap="round" stroke-linejoin="round"/>
<path d="M34.3529 35.5414L35.2941 43.5022L40.4902 35.7179L34.3529 35.5414Z" fill="#CD6116" stroke="#CD6116" stroke-linecap="round" stroke-linejoin="round"/>
<path d="M39.0196 26.7767L28 27.2669L29.0196 32.9335L30.6471 29.5218L34.5686 31.3061L39.0196 26.7767Z" fill="#CD6116" stroke="#CD6116" stroke-linecap="round" stroke-linejoin="round"/>
<path d="M15.4509 31.3061L19.3725 29.5218L20.9803 32.9335L22.0196 27.2669L10.9803 26.7767L15.4509 31.3061Z" fill="#CD6116" stroke="#CD6116" stroke-linecap="round" stroke-linejoin="round"/>
<path d="M10.9803 26.7767L15.6078 35.7963L15.4509 31.3061L10.9803 26.7767Z" fill="#E4751F" stroke="#E4751F" stroke-linecap="round" stroke-linejoin="round"/>
<path d="M34.5686 31.3061L34.3726 35.7963L39.0196 26.7767L34.5686 31.3061Z" fill="#E4751F" stroke="#E4751F" stroke-linecap="round" stroke-linejoin="round"/>
<path d="M22.0196 27.2669L20.9803 32.9335L22.2745 39.6198L22.5686 30.8159L22.0196 27.2669Z" fill="#E4751F" stroke="#E4751F" stroke-linecap="round" stroke-linejoin="round"/>
<path d="M28 27.2669L27.4706 30.7963L27.7059 39.6198L29.0196 32.9335L28 27.2669Z" fill="#E4751F" stroke="#E4751F" stroke-linecap="round" stroke-linejoin="round"/>
<path d="M29.0197 32.9335L27.7059 39.6198L28.6471 40.2668L34.3726 35.7963L34.5687 31.3061L29.0197 32.9335Z" fill="#F6851B" stroke="#F6851B" stroke-linecap="round" stroke-linejoin="round"/>
<path d="M15.4509 31.3061L15.6078 35.7963L21.3333 40.2668L22.2745 39.6198L20.9803 32.9335L15.4509 31.3061Z" fill="#F6851B" stroke="#F6851B" stroke-linecap="round" stroke-linejoin="round"/>
<path d="M29.1177 46.4237L29.1765 44.6002L28.6863 44.1688H21.2942L20.8432 44.6002L20.8824 46.4237L14.7059 43.5021L16.8628 45.2668L21.2353 48.3061H28.7451L33.1373 45.2668L35.2942 43.5021L29.1177 46.4237Z" fill="#C0AD9E" stroke="#C0AD9E" stroke-linecap="round" stroke-linejoin="round"/>
<path d="M28.6471 40.2669L27.7059 39.6198H22.2745L21.3333 40.2669L20.8431 44.6002L21.2941 44.1688H28.6863L29.1765 44.6002L28.6471 40.2669Z" fill="#161616" stroke="#161616" stroke-linecap="round" stroke-linejoin="round"/>
<path d="M48.3334 17.3845L50 9.3845L47.5098 1.95312L28.6471 15.9531L35.902 22.0904L46.1569 25.0904L48.4314 22.4433L47.451 21.7374L49.0196 20.3061L47.804 19.3649L49.3726 18.1688L48.3334 17.3845Z" fill="#763D16" stroke="#763D16" stroke-linecap="round" stroke-linejoin="round"/>
<path d="M0 9.3845L1.66667 17.3845L0.607844 18.1688L2.17647 19.3649L0.980392 20.3061L2.54902 21.7374L1.56863 22.4433L3.82353 25.0904L14.0784 22.0904L21.3333 15.9531L2.47059 1.95312L0 9.3845Z" fill="#763D16" stroke="#763D16" stroke-linecap="round" stroke-linejoin="round"/>
<path d="M46.1569 25.0904L35.902 22.0904L39.0196 26.7767L34.3726 35.7963L40.4902 35.7178H49.6079L46.1569 25.0904Z" fill="#F6851B" stroke="#F6851B" stroke-linecap="round" stroke-linejoin="round"/>
<path d="M14.0784 22.0904L3.82351 25.0904L0.411743 35.7178H9.50978L15.6078 35.7963L10.9804 26.7767L14.0784 22.0904Z" fill="#F6851B" stroke="#F6851B" stroke-linecap="round" stroke-linejoin="round"/>
<path d="M28.0001 27.2668L28.6471 15.9531L31.6275 7.89429H18.3922L21.3334 15.9531L22.0197 27.2668L22.255 30.8355L22.2746 39.6198H27.7059L27.7452 30.8355L28.0001 27.2668Z" fill="#F6851B" stroke="#F6851B" stroke-linecap="round" stroke-linejoin="round"/>
</g>
<defs>
<clipPath id="clip0_2061_982">
<rect width="50" height="50" fill="white"/>
</clipPath>
</defs>
</svg>
