<svg width="50" height="50" viewBox="0 0 50 50" fill="none" xmlns="http://www.w3.org/2000/svg">
<g clip-path="url(#clip0_2061_859)">
<path d="M25 50C38.8071 50 50 38.8071 50 25C50 11.1929 38.8071 0 25 0C11.1929 0 0 11.1929 0 25C0 38.8071 11.1929 50 25 50Z" fill="url(#paint0_radial_2061_859)"/>
<path d="M15.6982 19.3091C20.7275 14.397 28.8916 14.397 33.9209 19.3091L34.5264 19.9048C34.7803 20.1489 34.7803 20.5493 34.5264 20.7935L32.4561 22.8149C32.3291 22.9419 32.124 22.9419 31.9971 22.8149L31.167 22.0044C27.6514 18.5767 21.9678 18.5767 18.4521 22.0044L17.5635 22.8735C17.4365 23.0005 17.2314 23.0005 17.1045 22.8735L15.0342 20.8521C14.7803 20.6079 14.7803 20.2075 15.0342 19.9634L15.6982 19.3091ZM38.208 23.4888L40.0537 25.2856C40.3076 25.5298 40.3076 25.9302 40.0537 26.1743L31.7432 34.2896C31.4893 34.5337 31.0791 34.5337 30.835 34.2896L24.9365 28.5278C24.8779 28.4692 24.7705 28.4692 24.7119 28.5278L18.8135 34.2896C18.5596 34.5337 18.1494 34.5337 17.9053 34.2896L9.56543 26.1743C9.31152 25.9302 9.31152 25.5298 9.56543 25.2856L11.4111 23.4888C11.665 23.2446 12.0752 23.2446 12.3193 23.4888L18.2178 29.2505C18.2764 29.3091 18.3838 29.3091 18.4424 29.2505L24.3408 23.4888C24.5947 23.2446 25.0049 23.2446 25.249 23.4888L31.1475 29.2505C31.2061 29.3091 31.3135 29.3091 31.3721 29.2505L37.2705 23.4888C37.5439 23.2446 37.9541 23.2446 38.208 23.4888Z" fill="white"/>
</g>
<defs>
<radialGradient id="paint0_radial_2061_859" cx="0" cy="0" r="1" gradientUnits="userSpaceOnUse" gradientTransform="translate(0.000154972 25.0008) scale(50)">
<stop stop-color="#5D9DF6"/>
<stop offset="1" stop-color="#006FFF"/>
</radialGradient>
<clipPath id="clip0_2061_859">
<rect width="50" height="50" fill="white"/>
</clipPath>
</defs>
</svg>
